<?xml version="1.0" standalone="no"?><!DOCTYPE svg PUBLIC "-//W3C//DTD SVG 1.1//EN" "http://www.w3.org/Graphics/SVG/1.1/DTD/svg11.dtd"><svg t="1508479449939" class="icon" style="" viewBox="0 0 1024 1024" version="1.1" xmlns="http://www.w3.org/2000/svg" p-id="5592" xmlns:xlink="http://www.w3.org/1999/xlink" width="200" height="200"><defs><style type="text/css"></style></defs><path d="M98.477526 897.934515C98.477526 737.921009 194.178442 599.686354 332.885694 534.625484 384.083715 567.628516 445.40319 586.808083 511.36987 586.808083 577.533466 586.808083 639.089241 567.470984 690.366027 534.31042 829.467111 599.213756 925.522474 737.645327 925.522474 897.934515 925.522474 1064.840062 98.477526 1067.163665 98.477526 897.934515ZM707.930887 462.436276C682.213727 487.523305 651.376765 507.608682 617.743604 521.19585 584.110443 534.743634 547.759848 541.793208 511.36987 541.793208 474.979892 541.793208 438.589915 534.743634 404.996137 521.19585 371.362976 507.608682 340.526014 487.523305 314.808854 462.436276 289.052312 437.388629 268.454955 407.339329 254.513339 374.572595 240.611107 341.805863 233.364619 306.361079 233.364619 270.916295 233.364619 235.432129 240.611107 199.987345 254.513339 167.220612 268.454955 134.493262 289.052312 104.443962 314.808854 79.356932 340.526014 54.269902 371.362976 34.184524 404.996137 20.636741 438.589915 7.049574 474.979892 0 511.36987 0 547.759848 0 584.110443 7.049574 617.743604 20.636741 651.376765 34.184524 682.213727 54.269902 707.930887 79.356932 733.648046 104.443962 754.245404 134.493262 768.187019 167.220612 782.08925 199.987345 789.33574 235.432129 789.33574 270.916295 789.33574 306.361079 782.08925 341.805863 768.187019 374.572595 754.245404 407.339329 733.648046 437.388629 707.930887 462.436276Z" p-id="5593" fill="#ffffff"></path></svg>