<?xml version="1.0" standalone="no"?><!DOCTYPE svg PUBLIC "-//W3C//DTD SVG 1.1//EN" "http://www.w3.org/Graphics/SVG/1.1/DTD/svg11.dtd"><svg t="1508469366944" class="icon" style="" viewBox="0 0 1024 1024" version="1.1" xmlns="http://www.w3.org/2000/svg" p-id="2514" xmlns:xlink="http://www.w3.org/1999/xlink" width="200" height="200"><defs><style type="text/css"></style></defs><path d="M341.341179 320.009338c-2.542916-163.399487 146.127102-170.658821 170.658821-170.658822 25.39539 0 173.431981 7.272637 170.658821 170.658822 0 0 3.38612 103.164614 0 106.661251 1.249457 102.43602-83.822081 137.26834-85.32941 170.658822 1.571798 87.25425 206.531843 106.86796 255.987208 149.325957 52.401464 55.003731 42.664705 127.994116 42.664706 127.994116H128.018675s-10.025331-72.990385 42.664706-127.994116c49.749054-42.457997 254.778684-61.702294 255.988232-149.325957-1.096984-33.368992-85.714174-68.583005-85.329411-170.658822-3.308349-3.692089-3.308349-95.601358-0.001023-106.661251z m375.206474-85.217871c2.148943-0.085958 3.9121-0.11154 5.219885-0.11154 19.751856 0 134.8912 5.346775 135.750777 126.977973 0 0-0.382717 74.361615 0 76.187193-2.045589 76.067466-68.211545 101.679797-67.875901 126.977973-0.285502 63.410192 159.128207 77.832669 203.626678 114.279766 34.722826 35.215036 27.15036 88.884376 27.15036 88.884377h-94.003978c-5.891174-16.496719-15.356756-33.948183-30.435173-49.77566-45.333488-38.919405-233.214553-56.899918-234.655367-136.882554 1.381463-30.608112 79.363536-62.537312 78.218456-156.436912 3.104711-3.206018 0-97.772814 0-97.772814 0.683569-40.21184-8.598842-70.107731-22.995737-92.327802zM94.726431 767.987209H0.722454s-7.572466-53.66934 27.15036-88.884377c44.49847-36.447097 203.913203-50.869574 203.626677-114.279766 0.335644-25.298176-65.830311-50.910507-67.8759-126.977973 0.382717-1.824555 0-76.187193 0-76.187193 0.859577-121.631198 115.998921-126.977973 135.750777-126.977973 1.308809 0 3.071965 0.025583 5.220908 0.11154-14.396895 22.221094-23.680329 52.116985-22.997783 92.328825 0 0-3.104711 94.566796 0 97.772814-1.14508 93.8996 76.836993 125.8288 78.218456 156.436912-1.440815 79.982636-189.32188 97.962126-234.655368 136.882554-15.077394 15.826454-24.542976 33.277918-30.43415 49.774637z" p-id="2515" fill="#999"></path></svg>
