<?xml version="1.0" standalone="no"?><!DOCTYPE svg PUBLIC "-//W3C//DTD SVG 1.1//EN" "http://www.w3.org/Graphics/SVG/1.1/DTD/svg11.dtd"><svg t="1508483815063" class="icon" style="" viewBox="0 0 1024 1024" version="1.1" xmlns="http://www.w3.org/2000/svg" p-id="18409" xmlns:xlink="http://www.w3.org/1999/xlink" width="200" height="200"><defs><style type="text/css"></style></defs><path d="M417.9 258h-94.8v54.9h-54.8v94.8H323v54.9h94.8v-54.9h55v-94.8h-54.9zM857.3 418.3c-56.3 0-102.2 45.9-102.2 102.2S801 622.7 857.3 622.7c56.3 0 102.2-45.9 102.2-102.2s-45.9-102.2-102.2-102.2z" fill="#1296db" p-id="18410" class=""></path><path d="M838.2 757.9L610.5 524.7 850 270.3c12.3-12.7 16.7-30.2 12.4-49.4-0.1-0.5-1.4-6.4-4.3-13.2l2.5-2.5-12.1-14.1c-35.3-40.7-86.9-78.4-145.4-106-64.3-30.4-131.9-46.5-195.5-46.5-62 0-122 12.1-178.6 35.9-54.7 23.1-103.7 56.1-145.9 98.3-42.2 42.2-75.3 91.2-98.4 145.9-24 56.5-36.1 116.7-36.1 178.6 0 62 12.2 122 36.1 178.6 23.2 54.7 56.2 103.7 98.4 145.9 42.2 42.1 91.2 75.2 145.9 98.3 56.6 24 116.7 36.1 178.6 36.1 117.4 0 229.2-44.6 314.8-125.6l0.6-0.6 0.6-0.6c0.7-0.8 1.5-1.7 2.5-2.7 5.2-5.7 12.5-13.5 17-23.9 6.4-14.8 5-29.8-3.9-43.5l-1-1.4zM507.6 861.8c-200.8 0-364.1-163.3-364.1-364.1s163.3-364.1 364.1-364.1c92.9 0 180.3 35 248.1 98.8L480 527.1l251 257.5c-63.9 49.9-142.4 77.2-223.4 77.2z" fill="#d4237a" p-id="18411" class=""></path></svg>