<?xml version="1.0" standalone="no"?><!DOCTYPE svg PUBLIC "-//W3C//DTD SVG 1.1//EN" "http://www.w3.org/Graphics/SVG/1.1/DTD/svg11.dtd"><svg t="1508473274414" class="icon" style="" viewBox="0 0 1024 1024" version="1.1" xmlns="http://www.w3.org/2000/svg" p-id="3285" xmlns:xlink="http://www.w3.org/1999/xlink" width="200" height="200"><defs><style type="text/css"></style></defs><path d="M512 917.314189c223.848231 0 405.314189-181.464935 405.314189-405.314189S735.848231 106.685811 512 106.685811 106.685811 288.150746 106.685811 512s181.464935 405.314189 405.314189 405.314189z m0 63.996546c-259.193227 0-469.310735-210.117508-469.310735-469.310735S252.806773 42.689265 512 42.689265s469.310735 210.117508 469.310735 469.310735-210.117508 469.310735-469.310735 469.310735z m110.284779-723.835639c-50.479695 8.435113-88.952938 52.323693-88.952938 105.197924 0 58.907645 47.75463 106.661252 106.661252 106.661251 58.423621 0 105.876376-46.972824 106.652042-105.213273 27.030633 42.801828 42.673915 93.51279 42.673915 147.877979 0 153.159262-124.160811 277.320073-277.320073 277.320073S234.679927 665.159262 234.679927 512s124.160811-277.320073 277.320073-277.320073c39.191604 0 76.484975 8.130168 110.284779 22.795169z" p-id="3286" fill="#999"></path></svg>
