<?xml version="1.0" standalone="no"?><!DOCTYPE svg PUBLIC "-//W3C//DTD SVG 1.1//EN" "http://www.w3.org/Graphics/SVG/1.1/DTD/svg11.dtd"><svg t="1508483663867" class="icon" style="" viewBox="0 0 1024 1024" version="1.1" xmlns="http://www.w3.org/2000/svg" p-id="15798" xmlns:xlink="http://www.w3.org/1999/xlink" width="200" height="200"><defs><style type="text/css"></style></defs><path d="M511.513 17.186c-269.25 0-487.759 218.529-487.759 487.759s218.529 487.759 487.759 487.759 487.759-218.529 487.759-487.759-218.529-487.759-487.759-487.759zM511.513 959.537c-239.985 0-454.601-214.62-454.601-454.601s214.62-454.601 454.601-454.601 454.601 214.62 454.601 454.601-214.62 454.601-454.601 454.601zM571.991 504.972c-23.405 0-40.963-19.487-40.963-40.963 0-13.671 7.807-27.317 19.487-35.122-9.75-3.888-21.442-5.883-33.162-5.883-44.837 0-83.889 37.053-83.889 83.889 0 44.837 37.053 83.889 83.889 83.889 44.837 0 83.889-37.053 83.889-83.889v-9.75c-9.75 3.888-19.487 7.807-29.25 7.807zM780.772 463.978c-17.579-21.442-37.053-40.963-58.523-60.474-64.357-56.563-132.663-89.744-204.866-89.744s-140.482 33.162-204.866 89.744c-21.442 19.487-40.963 39.030-58.523 60.474-9.75 11.717-17.579 21.442-21.442 27.317l-9.75 13.671 9.75 13.671c3.888 5.883 11.717 15.615 21.442 27.317 17.579 21.442 37.053 40.963 58.523 60.474 64.357 56.563 132.663 89.744 204.866 89.744s140.482-33.162 204.866-89.744c21.442-19.487 40.963-39.030 58.523-60.474 9.75-11.717 17.579-21.442 21.442-27.317l9.75-13.671-9.75-13.671c-3.888-5.883-11.717-15.615-21.442-27.317zM755.418 514.736c-1.98-1.98-3.888-5.883-5.883-7.807-1.98 3.888-5.883 5.883-7.807 9.75-15.615 19.487-33.162 37.053-52.669 54.649-54.649 48.783-113.175 78.073-171.691 78.073-58.523 0-115.122-29.25-171.691-78.073-19.487-17.579-37.053-37.053-52.669-54.649-3.888-3.888-5.883-5.883-7.807-9.75-1.98 1.98-3.888 5.883-5.883 7.807-1.98 3.888-3.888 5.883-3.888 5.883v-29.25c0 1.98 1.98 3.888 3.888 5.883 1.98 1.98 3.888 5.883 5.883 7.807 1.98-3.888 5.883-5.883 7.807-9.75 15.615-19.487 33.162-37.053 52.669-54.649 54.649-48.783 113.175-78.073 171.691-78.073 58.523 0 115.122 29.25 171.691 78.073 19.487 17.579 37.053 37.053 52.669 54.649 3.888 3.888 5.883 5.883 7.807 9.75 1.98-1.98 3.888-5.883 5.883-7.807 1.98-3.888 3.888-5.883 3.888-5.883v29.25c0-1.98-1.98-3.888-3.888-5.883z" p-id="15799" fill="#FF6600"></path></svg>