<?xml version="1.0" standalone="no"?><!DOCTYPE svg PUBLIC "-//W3C//DTD SVG 1.1//EN" "http://www.w3.org/Graphics/SVG/1.1/DTD/svg11.dtd"><svg t="1508483782584" class="icon" style="" viewBox="0 0 1024 1024" version="1.1" xmlns="http://www.w3.org/2000/svg" p-id="17529" xmlns:xlink="http://www.w3.org/1999/xlink" width="200" height="200"><defs><style type="text/css"></style></defs><path d="M512.01 62.515c88.514 0 160.285 86.461 160.285 193.038l0 0.754 128.203 0L864.6 961.485l-705.2 0 64.123-705.179 128.224 0 0-0.754C351.746 148.976 423.496 62.515 512.01 62.515M516.013 508.27l-49.287 104.943-115.064 14.459 84.596 79.336-21.814 113.87 101.569-55.93 101.568 55.93-21.814-113.87 84.597-79.336-115.044-14.459L516.013 508.27zM661.461 325.375c-6.768 21.039-16.533 40.276-28.625 56.998 3.563 1.383 7.439 2.138 11.484 2.138 17.728 0 32.062-14.354 32.062-32.061C676.382 341.049 670.43 331.054 661.461 325.375M391.979 383.462c-12.006-16.346-21.751-35.142-28.624-55.699-7.083 5.888-11.609 14.752-11.609 24.685 0 17.707 14.375 32.061 32.041 32.061C386.615 384.51 389.382 384.133 391.979 383.462M367.797 256.307l294.585 0c-0.606-99.012-66.343-179.081-147.271-179.081C434.141 77.226 368.406 157.294 367.797 256.307M383.787 320.387c-2.285 0-4.484 0.251-6.602 0.692 6.328 20.661 15.675 39.542 27.368 55.782 6.895-5.867 11.316-14.626 11.316-24.412C415.869 334.742 401.493 320.387 383.787 320.387M644.32 320.387c-17.687 0-32.062 14.354-32.062 32.062 0 10.394 4.944 19.593 12.615 25.481 11.965-16.387 21.521-35.457 27.996-56.391C650.146 320.807 647.296 320.387 644.32 320.387" p-id="17530" fill="#e12b14"></path></svg>