<?xml version="1.0" standalone="no"?><!DOCTYPE svg PUBLIC "-//W3C//DTD SVG 1.1//EN" "http://www.w3.org/Graphics/SVG/1.1/DTD/svg11.dtd"><svg t="1508483734769" class="icon" style="" viewBox="0 0 1024 1024" version="1.1" xmlns="http://www.w3.org/2000/svg" p-id="16169" xmlns:xlink="http://www.w3.org/1999/xlink" width="200" height="200"><defs><style type="text/css"></style></defs><path d="M864.107383 907.288858a24.062022 24.062022 0 0 1-18.405185-8.534374L635.135458 649.872091c-8.027837-9.481955-7.43432-23.802102 1.356904-32.592303 23.059182-23.069415 41.470507-49.810453 54.710043-79.468936 15.179724-34.029024 22.874987-70.325695 22.874987-107.886149 0-146.134265-118.891807-265.023002-265.033236-265.023002s-265.035282 118.887714-265.035282 265.021979c0 146.131195 118.893854 265.017886 265.035282 265.017886 37.031405 0 72.842005-7.480368 106.437148-22.235421a24.076348 24.076348 0 0 1 9.6815-2.032286 24.121374 24.121374 0 0 1 22.071691 14.407128 23.962761 23.962761 0 0 1 0.388856 18.441001c-2.339278 5.995551-6.870478 10.726296-12.768814 13.311167-39.73498 17.453511-82.065064 26.299993-125.810381 26.299993-172.71362 0-313.225841-140.507104-313.225841-313.210492 0-172.705434 140.512221-313.212538 313.225841-313.212537s313.225841 140.507104 313.225841 313.212537c0 44.375673-9.103332 87.279832-27.063379 127.521349a312.74591 312.74591 0 0 1-49.462528 77.631078l196.753129 232.555543c8.575306 10.141988 7.306406 25.3739-2.831488 33.954323a24.14184 24.14184 0 0 1-15.558348 5.703909z" fill="#e12b14" p-id="16170"></path><path d="M449.044156 121.95354c169.821757 0 307.98242 138.154523 307.98242 307.969116 0 43.638893-8.951883 85.825714-26.608008 125.386732a306.796408 306.796408 0 0 1-51.601238 79.695087L878.491998 871.015723c6.724145 7.949043 5.734608 19.841907-2.214434 26.570146a18.810415 18.810415 0 0 1-12.170181 4.459568 18.811438 18.811438 0 0 1-14.402011-6.678096L639.140679 646.48904c-6.333242-7.483438-5.873778-18.571984 1.058098-25.502837 23.520693-23.530926 42.290175-50.795896 55.789631-81.041757 15.47853-34.694173 23.331381-71.709205 23.331381-110.020766 0-149.025105-121.245412-270.2654-270.276656-270.2654s-270.276656 121.240295-270.276657 270.2654c0 149.023058 121.245412 270.263353 270.276657 270.263353 37.761022 0 74.278727-7.629771 108.546181-22.676465a18.844184 18.844184 0 0 1 7.572466-1.592265c7.257288 0 14.166651 4.206812 17.268292 11.273765 4.188392 9.534144-0.147356 20.655436-9.679453 24.841781-39.072901 17.157775-80.694857 25.856901-123.707486 25.856901-169.821757 0-307.981397-138.154523-307.981397-307.96707 0-169.815617 138.15964-307.97014 307.98242-307.97014m0-10.484796c-175.603437 0-318.467215 142.857639-318.467215 318.453912 0 175.59525 142.863778 318.451866 318.467215 318.451866 44.474934 0 87.515193-8.996908 127.923508-26.742061 7.1744-3.15076 12.69309-8.906857 15.538905-16.208147 2.845815-7.302313 2.676969-15.275915-0.474815-22.451338a29.347398 29.347398 0 0 0-26.86895-17.542538c-4.067642 0-8.02886 0.831948-11.777231 2.472308-32.940227 14.465456-68.042699 21.797445-104.341417 21.797445-143.249565 0-259.790838-116.536156-259.790838-259.777535 0-143.243425 116.542296-259.780605 259.791861-259.780604s259.791861 116.53718 259.791861 259.780604c0 36.82265-7.543813 72.40096-22.421662 105.748463-12.974499 29.070082-31.018457 55.280024-53.629431 77.901231-10.700713 10.69969-11.425214 28.133757-1.6465 39.688931L841.704141 902.139581a29.288047 29.288047 0 0 0 22.406312 10.390652 29.392424 29.392424 0 0 0 18.933211-6.9329c12.356422-10.459213 13.901615-29.006637 3.455705-41.354873l-193.872522-229.148957a317.689503 317.689503 0 0 0 47.365774-75.511811c18.259876-40.912805 27.51875-84.536348 27.51875-129.659036 0-175.596274-142.863778-318.453912-318.467215-318.453912z" fill="#e12b14" p-id="16171"></path></svg>