<?xml version="1.0" standalone="no"?><!DOCTYPE svg PUBLIC "-//W3C//DTD SVG 1.1//EN" "http://www.w3.org/Graphics/SVG/1.1/DTD/svg11.dtd"><svg t="1508484982061" class="icon" style="" viewBox="0 0 1025 1024" version="1.1" xmlns="http://www.w3.org/2000/svg" p-id="11973" xmlns:xlink="http://www.w3.org/1999/xlink" width="200.1953125" height="200"><defs><style type="text/css"></style></defs><path d="M1023.982644 416.247322 1023.982644 77.893424C1023.982644 34.954847 989.045153 0 946.106576 0L614.920678 0.034712 600.723525 0c-21.677559 0-54.497627 0-75.914847 21.41722L18.865898 527.394712C6.716746 539.526508 0 555.702237 0 572.867254c0 17.217085 6.682034 33.375458 18.831186 45.541966l386.794305 386.707525C417.757288 1017.30061 433.898305 1024 451.098034 1024s33.375458-6.69939 45.507254-18.848542l505.94278-505.960136C1024.242983 477.531119 1024.104136 446.37722 1023.982644 416.247322zM763.661017 347.101288c-47.937085 0-86.779661-38.82522-86.779661-86.779661C676.881356 212.401898 715.723932 173.559322 763.661017 173.559322s86.779661 38.842576 86.779661 86.762305C850.440678 308.276068 811.598102 347.101288 763.661017 347.101288z" p-id="11974" fill="#ffffff"></path></svg>