<?xml version="1.0" standalone="no"?><!DOCTYPE svg PUBLIC "-//W3C//DTD SVG 1.1//EN" "http://www.w3.org/Graphics/SVG/1.1/DTD/svg11.dtd"><svg t="1508469584725" class="icon" style="" viewBox="0 0 1024 1024" version="1.1" xmlns="http://www.w3.org/2000/svg" p-id="2964" xmlns:xlink="http://www.w3.org/1999/xlink" width="200" height="200"><defs><style type="text/css"></style></defs><path d="M917.314189 63.999616H106.685811c-35.344996 0-63.996546 28.652574-63.996546 63.996547V725.302037c0 35.344996 28.652574 63.996546 63.996546 63.996547H298.676473v155.515936c0 3.662413 0.943488 7.265474 2.739391 10.458189 5.77554 10.268878 18.782785 13.910824 29.05064 8.135284L639.993093 789.299607h277.320073c35.344996 0 63.996546-28.652574 63.996546-63.996546V127.997186c0.001023-35.344996-28.65155-63.99757-63.995523-63.99757z m-639.969557 426.647054c-35.344996 0-63.996546-28.652574-63.996546-63.996547s28.652574-63.996546 63.996546-63.996546 63.996546 28.652574 63.996547 63.996546-28.652574 63.996546-63.996547 63.996547z m234.655368 0c-35.344996 0-63.996546-28.652574-63.996546-63.996547s28.652574-63.996546 63.996546-63.996546 63.996546 28.652574 63.996546 63.996546-28.652574 63.996546-63.996546 63.996547z m234.655368 0c-35.344996 0-63.996546-28.652574-63.996547-63.996547s28.652574-63.996546 63.996547-63.996546 63.996546 28.652574 63.996546 63.996546-28.65155 63.996546-63.996546 63.996547z" p-id="2965" fill="#999"></path></svg>
