<?xml version="1.0" standalone="no"?><!DOCTYPE svg PUBLIC "-//W3C//DTD SVG 1.1//EN" "http://www.w3.org/Graphics/SVG/1.1/DTD/svg11.dtd"><svg t="1508477887367" class="icon" style="" viewBox="0 0 1024 1024" version="1.1" xmlns="http://www.w3.org/2000/svg" p-id="4431" xmlns:xlink="http://www.w3.org/1999/xlink" width="200" height="200"><defs><style type="text/css"></style></defs><path d="M905.6 819.2c-38.4-32-108.8-86.4-108.8-156.8V419.2c-6.4-160-86.4-256-230.4-275.2 12.8-12.8 22.4-28.8 22.4-51.2 0-44.8-35.2-92.8-80-92.8s-80 48-80 92.8c0 22.4 9.6 38.4 22.4 51.2-144 19.2-227.2 115.2-230.4 275.2v243.2c0 73.6-70.4 124.8-108.8 156.8-25.6 35.2 16 41.6 41.6 41.6H867.2c22.4 0 64-6.4 38.4-41.6zM496 1024c70.4 0 128-51.2 137.6-115.2H358.4c9.6 64 67.2 115.2 137.6 115.2z" fill="#8a8a8a" p-id="4432"></path></svg>