<?xml version="1.0" standalone="no"?><!DOCTYPE svg PUBLIC "-//W3C//DTD SVG 1.1//EN" "http://www.w3.org/Graphics/SVG/1.1/DTD/svg11.dtd"><svg t="1508478007774" class="icon" style="" viewBox="0 0 1024 1024" version="1.1" xmlns="http://www.w3.org/2000/svg" p-id="8373" xmlns:xlink="http://www.w3.org/1999/xlink" width="200" height="200"><defs><style type="text/css"></style></defs><path d="M39.384615 73.334097L66.402441 46.710118 984.614658 950.743884l-27.017826 26.62398L39.384615 73.255328z m817.860294 604.632151V392.270467c0-138.870047-115.081758-267.027487-258.284109-305.230534v-2.363075C598.9608 38.045509 560.363907 0 512.866097 0 465.525826 0 426.928933 38.045509 426.928933 84.755627v2.363075a369.427408 369.427408 0 0 0-152.654652 84.283012l607.310302 597.858002c-13.863374-22.291675-24.260904-51.908883-24.260904-91.372237zM168.566054 392.270467v285.617012c0 107.756225-76.799941 143.911274-94.759311 150.84296a39.620893 39.620893 0 0 0-22.055368 35.446127c0 21.897829 18.03814 39.699662 40.329815 39.699662h288.295163A132.726052 132.726052 0 0 0 512.787328 1023.999212c69.789485 0 126.424518-52.932882 132.568514-120.044215h156.514341L186.446656 298.06254A266.161026 266.161026 0 0 0 168.566054 392.270467z m399.832308 511.605761a56.871341 56.871341 0 0 1-110.906991 0h110.906991z" p-id="8374" fill="#fff"></path></svg>
